<svg xmlns="http://www.w3.org/2000/svg" width="28" height="28" fill="none" viewBox="0 0 28 28">
  <g clip-path="url(#a)">
    <path fill="#74512D" d="m27.488 25.02-5.42-5.422c4.056-5.42 2.95-13.1-2.469-17.154C14.18-1.611 6.5-.506 2.445 4.914c-4.055 5.418-2.95 13.098 2.47 17.153a12.255 12.255 0 0 0 14.684 0l5.422 5.422a1.745 1.745 0 1 0 2.467-2.467v-.003Zm-15.186-4a8.72 8.72 0 1 1 8.72-8.72 8.73 8.73 0 0 1-8.72 8.72Z"/>
  </g>
  <defs>
    <clipPath id="a">
      <path fill="#fff" d="M0 0h28v28H0z"/>
    </clipPath>
  </defs>
</svg>
