<svg xmlns="http://www.w3.org/2000/svg" width="25" height="25" fill="none" viewBox="0 0 25 25">
  <g clip-path="url(#a)">
    <path fill="#74512D" d="M20.495 2.873A12.434 12.434 0 0 0 10.911.104 12.5 12.5 0 0 0 12.519 25h7.273A5.214 5.214 0 0 0 25 19.792v-8.077a12.544 12.544 0 0 0-4.505-8.842ZM8.334 7.292H12.5a1.042 1.042 0 0 1 0 2.083H8.334a1.042 1.042 0 0 1 0-2.083Zm8.333 10.416H8.334a1.042 1.042 0 0 1 0-2.083h8.333a1.042 1.042 0 0 1 0 2.083Zm0-4.166H8.334a1.041 1.041 0 1 1 0-2.084h8.333a1.042 1.042 0 1 1 0 2.084Z"/>
  </g>
  <defs>
    <clipPath id="a">
      <path fill="#fff" d="M0 0h25v25H0z"/>
    </clipPath>
  </defs>
</svg>
