<svg xmlns="http://www.w3.org/2000/svg" width="25" height="25" fill="none" viewBox="0 0 25 25">
  <g clip-path="url(#a)">
    <path fill="#74512D" d="M18.23 1.997a6.667 6.667 0 0 0-5.73 3.437 6.667 6.667 0 0 0-5.729-3.437A7.083 7.083 0 0 0 .001 9.34c0 4.736 4.985 9.909 9.166 13.416a5.18 5.18 0 0 0 6.667 0C20.014 19.25 25 14.077 25 9.341a7.084 7.084 0 0 0-6.77-7.344Zm-3.735 19.166a3.097 3.097 0 0 1-3.99 0c-5.352-4.49-8.422-8.799-8.422-11.822a5 5 0 0 1 4.688-5.26 5 5 0 0 1 4.688 5.26 1.041 1.041 0 1 0 2.083 0 5 5 0 0 1 4.687-5.26 5 5 0 0 1 4.688 5.26c0 3.024-3.07 7.332-8.422 11.818v.005Z"/>
  </g>
  <defs>
    <clipPath id="a">
      <path fill="#fff" d="M0 0h25v25H0z"/>
    </clipPath>
  </defs>
</svg>
