<svg xmlns="http://www.w3.org/2000/svg" width="32" height="32" fill="none" viewBox="0 0 32 32">
  <g clip-path="url(#a)">
    <g clip-path="url(#b)">
      <path fill="#FEBA17" d="M23.333 2.556A8.533 8.533 0 0 0 16 6.956a8.533 8.533 0 0 0-7.333-4.4A9.067 9.067 0 0 0 0 11.956c0 6.063 6.381 12.684 11.733 17.173a6.632 6.632 0 0 0 8.534 0C25.619 24.64 32 18.02 32 11.956a9.067 9.067 0 0 0-8.667-9.4Z"/>
    </g>
  </g>
  <defs>
    <clipPath id="a">
      <path fill="#fff" d="M0 0h32v32H0z"/>
    </clipPath>
    <clipPath id="b">
      <path fill="#fff" d="M0 0h32v32H0z"/>
    </clipPath>
  </defs>
</svg>
