<?xml version="1.0" encoding="UTF-8" standalone="no"?>
<!-- Created with Inkscape (http://www.inkscape.org/) -->

<svg
   width="512"
   height="512"
   viewBox="0 0 512 512"
   version="1.1"
   id="svg1"
   inkscape:version="1.4 (86a8ad7, 2024-10-11)"
   sodipodi:docname="Mapache.svg"
   xmlns:inkscape="http://www.inkscape.org/namespaces/inkscape"
   xmlns:sodipodi="http://sodipodi.sourceforge.net/DTD/sodipodi-0.dtd"
   xmlns="http://www.w3.org/2000/svg"
   xmlns:svg="http://www.w3.org/2000/svg">
  <sodipodi:namedview
     id="namedview1"
     pagecolor="#505050"
     bordercolor="#ffffff"
     borderopacity="1"
     inkscape:showpageshadow="0"
     inkscape:pageopacity="0"
     inkscape:pagecheckerboard="1"
     inkscape:deskcolor="#505050"
     inkscape:document-units="px"
     inkscape:zoom="0.79589844"
     inkscape:cx="154.54233"
     inkscape:cy="304.68712"
     inkscape:window-width="1920"
     inkscape:window-height="1017"
     inkscape:window-x="1912"
     inkscape:window-y="-8"
     inkscape:window-maximized="1"
     inkscape:current-layer="layer1" />
  <defs
     id="defs1">
    <clipPath
       clipPathUnits="userSpaceOnUse"
       id="clipPath53">
      <path
         class="st2"
         d="m 846.81577,402.15257 c -7.92337,8.23916 -17.24125,13.77129 -27.96424,16.5871 -7.08609,1.8632 -14.46628,2.25208 -21.77145,1.61415 -22.64104,-1.97792 -40.95705,-12.52744 -54.9287,-31.65978 -0.27486,-0.38334 -0.70179,-0.63676 -1.17592,-0.68679 v 0 c -2.02752,-0.21183 -3.71924,1.54901 -3.40023,3.57285 0.23676,1.51804 0.83897,2.95274 1.81725,4.31343 14.23981,21.46001 34.27007,33.28336 60.12133,35.4781 -2.14952,19.62587 -5.20183,39.07864 -9.15694,58.35831 -0.25626,0.69766 -0.69614,1.18655 -1.34022,1.45794 -0.64408,0.2714 -1.41698,0.25038 -2.11209,0.034 -19.51586,-6.09443 -39.37521,-10.81432 -59.56746,-14.1503 -16.44168,-2.97314 -33.00558,-4.71604 -49.72164,-5.22681 -11.37441,-0.33924 -22.74931,-0.52814 -34.12465,-0.56672 -18.07227,1.16863 -36.18032,2.7203 -54.29356,4.66308 -3.02564,0.32255 -5.72589,-1.96077 -5.85883,-4.99845 -0.88542,-21.02618 -0.39915,-42.0694 1.46814,-63.14026 25.58975,2.65226 47.35544,-5.04378 65.31703,-23.08937 0.92284,-0.93041 1.57843,-2.12439 1.70619,-3.42512 0.18268,-1.85532 -0.7783,-2.78624 -2.89229,-2.78215 -1.02176,0.005 -2.00879,0.39822 -2.79969,1.03968 -20.93059,17.0519 -42.66173,22.61143 -65.18279,16.68796 -19.15856,-5.04498 -35.42188,-18.13981 -43.83622,-36.07223 -4.59011,-9.78857 -6.67086,-20.29775 -6.23229,-31.52818 0.56113,-14.5048 5.43614,-28.61241 14.1569,-40.22894 12.20408,-16.24678 29.60545,-25.44903 52.20472,-27.59676 16.16789,-0.54654 30.78587,3.84507 43.86267,13.15439 9.3749,-10.62601 20.58785,-18.50308 33.65012,-23.61187 3.24325,-0.99772 6.49791,-1.8158 9.764,-2.45424 22.87445,-4.43981 46.57453,0.95784 64.65286,15.65076 7.92445,6.44034 14.66344,14.40895 20.22633,23.89521 14.35053,-6.75381 29.22826,-8.05007 44.64573,-3.8495 27.5473,8.70027 44.63081,25.87129 51.24926,51.49309 2.5241,9.75955 3.29082,19.9314 1.6183,29.87751 -2.4003,14.26096 -9.0973,26.6607 -20.09037,37.2092 z"
         id="path53"
         style="display:none" />
      <path
         id="lpe_path-effect53"
         class="powerclip"
         d="m 478.23864,409.56502 h 369.5323 v 333.82286 h -369.5323 z m 368.57713,-7.41245 0.0112,0.0193 c 10.99307,-10.5485 17.69007,-22.94824 20.09037,-37.2092 1.67252,-9.94611 0.9058,-20.11796 -1.6183,-29.87751 -6.61845,-25.6218 -23.70196,-42.79282 -51.24926,-51.49309 -15.41747,-4.20057 -30.2952,-2.90431 -44.64573,3.8495 -5.56289,-9.48626 -12.30188,-17.45487 -20.22633,-23.89521 -18.07833,-14.69292 -41.77841,-20.09057 -64.65286,-15.65076 -3.26609,0.63844 -6.52075,1.45652 -9.764,2.45424 -13.06227,5.10879 -24.27522,12.98586 -33.65012,23.61187 -13.0768,-9.30932 -27.69478,-13.70093 -43.86267,-13.15439 -22.59927,2.14773 -40.00064,11.34998 -52.20472,27.59676 -8.72076,11.61653 -13.59577,25.72414 -14.1569,40.22894 -0.43857,11.23043 1.64218,21.73961 6.23229,31.52818 8.41434,17.93242 24.67766,31.02725 43.83622,36.07223 22.52106,5.92347 44.2522,0.36394 65.18279,-16.68796 0.7909,-0.64146 1.77793,-1.03468 2.79969,-1.03968 2.11399,-0.004 3.07497,0.92683 2.89229,2.78215 -0.12776,1.30073 -0.78335,2.49471 -1.70619,3.42512 -17.96159,18.04559 -39.72728,25.74163 -65.31703,23.08937 -1.86729,21.07086 -2.35356,42.11408 -1.46814,63.14026 0.13294,3.03768 2.83319,5.321 5.85883,4.99845 18.11324,-1.94278 36.22129,-3.49445 54.29356,-4.66308 11.37534,0.0386 22.75024,0.22748 34.12465,0.56672 16.71606,0.51077 33.27996,2.25367 49.72164,5.22681 20.19225,3.33598 40.0516,8.05587 59.56746,14.1503 0.69511,0.21638 1.46801,0.2374 2.11209,-0.034 0.64408,-0.27139 1.08396,-0.76028 1.34022,-1.45794 3.95511,-19.27967 7.00742,-38.73244 9.15694,-58.35831 -25.85126,-2.19474 -45.88152,-14.01809 -60.12133,-35.4781 -0.97828,-1.36069 -1.58049,-2.79539 -1.81725,-4.31343 -0.31901,-2.02384 1.37271,-3.78468 3.40023,-3.57285 v 0 c 0.47413,0.05 0.90106,0.30345 1.17592,0.68679 13.97165,19.13234 32.28766,29.68186 54.9287,31.65978 7.30517,0.63793 14.68536,0.24905 21.77145,-1.61415 10.72299,-2.81581 20.04087,-8.34794 27.96424,-16.5871 z" />
    </clipPath>
    <inkscape:path-effect
       effect="powerclip"
       message=""
       id="path-effect53"
       is_visible="true"
       lpeversion="1"
       inverse="true"
       flatten="false"
       hide_clip="false" />
  </defs>
  <g
     inkscape:label="Capa 1"
     inkscape:groupmode="layer"
     id="layer1">
    <g
       id="Capa_6"
       clip-path="url(#clipPath53)"
       inkscape:path-effect="#path-effect53"
       transform="matrix(1.0713793,0,0,1.0313775,-454.52847,-257.53446)">
      <path
         class="st3"
         d="m 833.45,641.27 c 0,0 -64.31,46.43 -121.07,72.42 -24.35,11.16 -47.31,18.57 -63.2,16.93 -18.63,-1.91 -44.69,-18.41 -70.64,-38.99 -47.81,-37.91 -95.25,-89.67 -95.25,-89.67 l 14.59,-10.06 71.29,-49.15 84.63,-4.13 -9.45,83.19 22.17,-47.18 98.31,-33.49 68.58,100.03 0.06,0.09 z"
         id="path1"
         inkscape:original-d="m 833.45,641.27 c 0,0 -64.31,46.43 -121.07,72.42 -24.35,11.16 -47.31,18.57 -63.2,16.93 -18.63,-1.91 -44.69,-18.41 -70.64,-38.99 -47.81,-37.91 -95.25,-89.67 -95.25,-89.67 l 14.59,-10.06 71.29,-49.15 84.63,-4.13 -9.45,83.19 22.17,-47.18 98.31,-33.49 68.58,100.03 0.06,0.09 z"
         style="fill:#9b5c33;fill-rule:evenodd" />
      <path
         class="st2"
         d="m 664.7,687.96 c 0,0 -28.01,-2.37 -9.07,-1.31 0.07,3.32 6.28,0.27 4.13,4.05 -11.18,13.82 -5.88,22.97 -22.25,14.6 -8.02,-5.98 -12,-13.44 -11.89,-22.36 -0.03,-1.52 0.07,-3.09 0.28,-4.71 2.39,-6.02 6.88,-9.75 13.47,-11.17 11.9,-1.01 5.4,7.77 16.42,11.94 5.7,4.28 9.12,3.48 8.92,8.97 v 0 z"
         id="path2"
         inkscape:original-d="m 664.7,687.96 c 0,0 -28.01,-2.37 -9.07,-1.31 0.07,3.32 6.28,0.27 4.13,4.05 -11.18,13.82 -5.88,22.97 -22.25,14.6 -8.02,-5.98 -12,-13.44 -11.89,-22.36 -0.03,-1.52 0.07,-3.09 0.28,-4.71 2.39,-6.02 6.88,-9.75 13.47,-11.17 11.9,-1.01 5.4,7.77 16.42,11.94 5.7,4.28 9.12,3.48 8.92,8.97 v 0 z"
         style="fill:#f2e0c0;fill-rule:evenodd" />
      <path
         class="st2"
         d="m 842.75,466.41 c -1.78,31.69 -7.91,62.81 -18.4,93.36 3.75,8.44 7.58,16.84 11.5,25.19 5.78,19.21 5,37.48 -2.3,56.31 -0.03,-0.03 -0.05,-0.05 -0.06,-0.08 l -77.38,-91.37 -87.94,34 -21.96,40.67 9.36,-71.72 -93.91,-11.15 -63.25,47.12 c -4.32,3.03 -2.46,3.2 -7.05,6.4 -0.47,0.33 -7.6,6.52 -8.08,6.82 -0.72,-19.72 8.04,-32.06 20.05,-49.3 6.57,-7.2 13.07,-14.45 19.52,-21.76 0.15,-31.7 4.67,-63 13.59,-93.9 1.66,-5.37 4.22,-10.43 7.68,-15.19 v 0 c 2.07,-2.43 4.56,-4.12 7.49,-5.09 0.13,-0.11 0.28,-0.23 0.42,-0.35 4.08,-1.95 8.38,-2.32 12.88,-1.11 12.57,4.44 23.61,10.62 33.12,18.53 6.93,4.88 13.4,10.08 19.42,15.61 8.96,0.06 21.42,0.17 32.09,0.32 h 0.19 c 1.26,0.03 2.5,0.04 3.71,0.06 h 0.06 c 18.14,0.38 36.14,2.22 54,5.49 9.13,1.69 18.16,3.74 27.05,6.13 7.51,1.68 15.8,3.56 23.01,5.22 13.55,-7.79 27.84,-14.66 42.86,-20.6 8.99,-3.6 18.49,-5.21 28.52,-4.82 5.69,1.24 9.52,4.21 11.5,8.89 v 0 c 1.73,5.34 2.5,10.77 2.3,16.3 z"
         id="path3"
         inkscape:original-d="m 842.75,466.41 c -1.78,31.69 -7.91,62.81 -18.4,93.36 3.75,8.44 7.58,16.84 11.5,25.19 5.78,19.21 5,37.48 -2.3,56.31 -0.03,-0.03 -0.05,-0.05 -0.06,-0.08 l -77.38,-91.37 -87.94,34 -21.96,40.67 9.36,-71.72 -93.91,-11.15 -63.25,47.12 c -4.32,3.03 -2.46,3.2 -7.05,6.4 -0.47,0.33 -7.6,6.52 -8.08,6.82 -0.72,-19.72 8.04,-32.06 20.05,-49.3 6.57,-7.2 13.07,-14.45 19.52,-21.76 0.15,-31.7 4.67,-63 13.59,-93.9 1.66,-5.37 4.22,-10.43 7.68,-15.19 v 0 c 2.07,-2.43 4.56,-4.12 7.49,-5.09 0.13,-0.11 0.28,-0.23 0.42,-0.35 4.08,-1.95 8.38,-2.32 12.88,-1.11 12.57,4.44 23.61,10.62 33.12,18.53 6.93,4.88 13.4,10.08 19.42,15.61 8.96,0.06 21.42,0.17 32.09,0.32 h 0.19 c 1.26,0.03 2.5,0.04 3.71,0.06 h 0.06 c 18.14,0.38 36.14,2.22 54,5.49 9.13,1.69 18.16,3.74 27.05,6.13 7.51,1.68 15.8,3.56 23.01,5.22 13.55,-7.79 27.84,-14.66 42.86,-20.6 8.99,-3.6 18.49,-5.21 28.52,-4.82 5.69,1.24 9.52,4.21 11.5,8.89 v 0 c 1.73,5.34 2.5,10.77 2.3,16.3 z"
         style="fill:#f2e0c0;fill-rule:evenodd" />
      <path
         class="st2"
         d="m 651.65,419.19 c -1.22,-0.02 -2.47,-0.04 -3.74,-0.07 1.24,0.01 2.49,0.04 3.74,0.07 z"
         id="path4"
         inkscape:original-d="m 651.65,419.19 c -1.22,-0.02 -2.47,-0.04 -3.74,-0.07 1.24,0.01 2.49,0.04 3.74,0.07 z"
         style="fill:#f2e0c0;fill-rule:evenodd" />
      <path
         class="st2"
         d="m 833.4,641.18 c -19.27,-24.53 -41.84,-45.27 -67.73,-63.94 -8.17,-5.35 -17.14,-9.08 -26.93,-11.16 -3.02,-0.45 -5.94,-0.66 -8.79,-0.66 -13.91,0 -25.69,5.22 -35.33,15.7 -12.18,15.19 -14.97,31.81 -8.36,49.84 7.21,9.04 14.43,18.1 21.65,27.14 2.34,2.46 4.41,5.05 6.18,7.76 4.74,7.22 7.32,15.2 7.2,23.48 0,1.19 -0.08,2.4 -0.21,3.61 -0.83,7.61 -3.89,14.62 -8.7,20.74 -3.32,4.24 -7.47,8.05 -12.3,11.34 -14.33,9.8 -34.54,14.95 -56.24,12.92 -9.35,-0.88 -18.15,-3.01 -26.08,-6.13 -20.77,-8.18 -35.65,-23.17 -39.24,-40.17 -0.52,-2.47 -0.81,-4.99 -0.84,-7.53 -0.02,-1.51 0.06,-3.04 0.22,-4.56 0.83,-7.61 3.9,-14.63 8.72,-20.75 1,-1.29 2.09,-2.53 3.24,-3.75 2.61,-2.3 5.24,-4.56 7.89,-6.79 v 0 c 1.51,-1.08 3.09,-2.11 4.74,-3.08 4.48,-3.68 9.02,-7.28 13.62,-10.78 13.48,-8.46 20.29,-20.36 20.43,-35.67 -0.07,-17.91 -8.12,-31.65 -24.14,-41.25 -1.47,-0.57 -2.93,-1.18 -4.39,-1.81 -0.97,-0.31 -1.95,-0.61 -2.96,-0.87 -2.73,-0.71 -5.61,-1.23 -8.65,-1.56 -10.03,-0.44 -19.76,0.91 -29.19,4.02 -24.75,9.37 -62.37,30.69 -83.96,44.71 l 75.85,-72.56 94.66,9.22 26.41,3.58 14.7,3.41 69.91,-4.48 68.58,100.03 z"
         id="path5"
         inkscape:original-d="m 833.4,641.18 c -19.27,-24.53 -41.84,-45.27 -67.73,-63.94 -8.17,-5.35 -17.14,-9.08 -26.93,-11.16 -3.02,-0.45 -5.94,-0.66 -8.79,-0.66 -13.91,0 -25.69,5.22 -35.33,15.7 -12.18,15.19 -14.97,31.81 -8.36,49.84 7.21,9.04 14.43,18.1 21.65,27.14 2.34,2.46 4.41,5.05 6.18,7.76 4.74,7.22 7.32,15.2 7.2,23.48 0,1.19 -0.08,2.4 -0.21,3.61 -0.83,7.61 -3.89,14.62 -8.7,20.74 -3.32,4.24 -7.47,8.05 -12.3,11.34 -14.33,9.8 -34.54,14.95 -56.24,12.92 -9.35,-0.88 -18.15,-3.01 -26.08,-6.13 -20.77,-8.18 -35.65,-23.17 -39.24,-40.17 -0.52,-2.47 -0.81,-4.99 -0.84,-7.53 -0.02,-1.51 0.06,-3.04 0.22,-4.56 0.83,-7.61 3.9,-14.63 8.72,-20.75 1,-1.29 2.09,-2.53 3.24,-3.75 2.61,-2.3 5.24,-4.56 7.89,-6.79 v 0 c 1.51,-1.08 3.09,-2.11 4.74,-3.08 4.48,-3.68 9.02,-7.28 13.62,-10.78 13.48,-8.46 20.29,-20.36 20.43,-35.67 -0.07,-17.91 -8.12,-31.65 -24.14,-41.25 -1.47,-0.57 -2.93,-1.18 -4.39,-1.81 -0.97,-0.31 -1.95,-0.61 -2.96,-0.87 -2.73,-0.71 -5.61,-1.23 -8.65,-1.56 -10.03,-0.44 -19.76,0.91 -29.19,4.02 -24.75,9.37 -62.37,30.69 -83.96,44.71 l 75.85,-72.56 94.66,9.22 26.41,3.58 14.7,3.41 69.91,-4.48 68.58,100.03 z"
         style="fill:#f2e0c0;fill-rule:evenodd" />
      <path
         class="st0"
         d="m 676.4,685.57 c 0,0 0,0.03 0,0.05 0.07,3.32 -0.98,6.88 -3.14,10.65 -11.18,13.82 -24.95,16.54 -41.32,8.16 -8.02,-5.98 -12,-13.44 -11.89,-22.36 0,-1.25 0.1,-2.54 0.28,-3.85 2.39,-6.02 6.88,-9.75 13.47,-11.17 11.9,-1.01 23.35,0.56 34.36,4.73 5.4,4.06 8.15,8.65 8.25,13.79 z"
         id="path6"
         inkscape:original-d="m 676.4,685.57 c 0,0 0,0.03 0,0.05 0.07,3.32 -0.98,6.88 -3.14,10.65 -11.18,13.82 -24.95,16.54 -41.32,8.16 -8.02,-5.98 -12,-13.44 -11.89,-22.36 0,-1.25 0.1,-2.54 0.28,-3.85 2.39,-6.02 6.88,-9.75 13.47,-11.17 11.9,-1.01 23.35,0.56 34.36,4.73 5.4,4.06 8.15,8.65 8.25,13.79 z"
         style="fill:#352d24;fill-rule:evenodd" />
      <path
         class="st4"
         d="m 567.53,591.58 c 6.26,-10.03 18.15,-14.53 26.55,-10.04 8.4,4.49 10.14,16.26 3.88,26.3 -6.26,10.03 -18.15,14.53 -26.55,10.04 -8.4,-4.49 -10.14,-16.26 -3.88,-26.3 z"
         id="path7"
         inkscape:original-d="m 567.53,591.58 c 6.26,-10.03 18.15,-14.53 26.55,-10.04 8.4,4.49 10.14,16.26 3.88,26.3 -6.26,10.03 -18.15,14.53 -26.55,10.04 -8.4,-4.49 -10.14,-16.26 -3.88,-26.3 z"
         style="fill:#f2e0c0" />
      <path
         class="st5"
         d="m 569.28,592.52 c 5.54,-8.88 16.06,-12.86 23.49,-8.88 7.44,3.97 8.97,14.39 3.43,23.27 -5.54,8.88 -16.06,12.86 -23.49,8.88 -7.43,-3.98 -8.97,-14.39 -3.43,-23.27 z"
         id="path8"
         inkscape:original-d="m 569.28,592.52 c 5.54,-8.88 16.06,-12.86 23.49,-8.88 7.44,3.97 8.97,14.39 3.43,23.27 -5.54,8.88 -16.06,12.86 -23.49,8.88 -7.43,-3.98 -8.97,-14.39 -3.43,-23.27 z"
         style="fill:#362d24" />
      <path
         class="st4"
         d="m 717.06,593.25 c 8.89,-3.6 20.17,2.08 25.19,12.69 5.02,10.61 1.89,22.14 -7,25.74 -8.89,3.6 -20.17,-2.08 -25.19,-12.69 -5.02,-10.61 -1.89,-22.14 7,-25.74 z"
         id="path9"
         inkscape:original-d="m 717.06,593.25 c 8.89,-3.6 20.17,2.08 25.19,12.69 5.02,10.61 1.89,22.14 -7,25.74 -8.89,3.6 -20.17,-2.08 -25.19,-12.69 -5.02,-10.61 -1.89,-22.14 7,-25.74 z"
         style="fill:#f2e0c0" />
      <path
         class="st5"
         d="m 718.58,594.55 c 7.99,-2.91 17.75,2.47 21.81,12.01 4.06,9.54 0.86,19.63 -7.13,22.54 -7.99,2.91 -17.75,-2.47 -21.81,-12.01 -4.05,-9.54 -0.86,-19.63 7.13,-22.54 z"
         id="path10"
         inkscape:original-d="m 718.58,594.55 c 7.99,-2.91 17.75,2.47 21.81,12.01 4.06,9.54 0.86,19.63 -7.13,22.54 -7.99,2.91 -17.75,-2.47 -21.81,-12.01 -4.05,-9.54 -0.86,-19.63 7.13,-22.54 z"
         style="fill:#362d24" />
    </g>
    <path
       class="st2"
       d="m 438.82392,154.25564 c -7.70533,7.71327 -16.76679,12.89229 -27.19468,15.52837 -6.89109,1.74428 -14.06819,2.10834 -21.17232,1.51112 -22.01798,-1.85167 -39.82995,-11.72783 -53.41711,-29.63898 -0.2673,-0.35887 -0.68248,-0.59612 -1.14356,-0.64295 v 0 c -1.97172,-0.19831 -3.61689,1.45014 -3.30666,3.3448 0.23025,1.42114 0.81589,2.76426 1.76724,4.03811 13.84794,20.09025 33.32699,31.15893 58.46684,33.21358 -2.09037,18.37319 -5.05868,36.58431 -8.90495,54.6334 -0.2492,0.65313 -0.67697,1.11081 -1.30333,1.36488 -0.62636,0.25407 -1.37799,0.23439 -2.05397,0.0319 -18.97881,-5.70543 -38.29164,-10.12406 -57.92821,-13.24711 -15.98922,-2.78337 -32.09729,-4.41502 -48.35334,-4.89319 -11.0614,-0.31759 -22.12327,-0.49443 -33.18556,-0.53055 -17.57494,1.09405 -35.18468,2.54667 -52.79945,4.36545 -2.94238,0.30196 -5.56832,-1.83562 -5.69761,-4.67941 -0.86104,-19.68411 -0.38816,-39.38417 1.42775,-59.11011 24.88553,2.48297 46.05225,-4.72185 63.51955,-21.61562 0.89745,-0.87102 1.53499,-1.98879 1.65924,-3.20649 0.17766,-1.7369 -0.75688,-2.60841 -2.81269,-2.60458 -0.99365,0.005 -1.95351,0.3728 -2.72266,0.97332 -20.35458,15.96351 -41.4877,21.16818 -63.38901,15.62279 -18.63133,-4.72297 -34.44709,-16.98197 -42.62988,-33.7698 -4.46379,-9.16377 -6.48728,-19.002164 -6.06078,-29.515779 0.54569,-13.578972 5.28655,-26.786122 13.76732,-37.661183 11.86822,-15.209776 28.79072,-23.824666 50.76809,-25.835305 15.72296,-0.511656 29.93866,3.599641 42.6556,12.314771 9.1169,-9.94777 20.02129,-17.322058 32.72409,-22.104761 3.15401,-0.934047 6.3191,-1.699906 9.49531,-2.2976001 22.24496,-4.1564204 45.29283,0.8967111 62.87366,14.6518001 7.70637,6.029268 14.25991,13.489253 19.66971,22.370022 13.95562,-6.322726 28.42393,-7.536255 43.41712,-3.603798 26.78922,8.144943 43.40261,24.219972 49.83893,48.206368 2.45464,9.136615 3.20025,18.659205 1.57376,27.970475 -2.33425,13.3507 -8.84695,24.95899 -19.5375,34.83419 z"
       id="path25"
       style="fill:#f2e0c0;fill-rule:evenodd;stroke-width:0.954154" />
  </g>
</svg>
