<svg xmlns="http://www.w3.org/2000/svg" width="32" height="32" fill="none" viewBox="0 0 32 32">
  <g clip-path="url(#a)">
    <path fill="#F0E2D5" d="M30.667 21.333c-.207 0-.41-.048-.595-.14l-2.667-1.333a1.334 1.334 0 0 1 1.192-2.387l2.667 1.334a1.332 1.332 0 0 1-.597 2.526ZM28.596 9.2l2.667-1.333A1.334 1.334 0 1 0 30.07 5.48l-2.667 1.333A1.334 1.334 0 1 0 28.596 9.2ZM32 13.333A1.334 1.334 0 0 0 30.667 12H28a1.333 1.333 0 0 0 0 2.667h2.667A1.333 1.333 0 0 0 32 13.333Zm-8 12v-24a1.334 1.334 0 0 0-2.667 0c0 3.932-3.444 5.334-6.666 5.334H5.333A5.333 5.333 0 0 0 0 12v2.667A5.333 5.333 0 0 0 5.333 20h9.334c3.222 0 6.666 1.401 6.666 5.333a1.333 1.333 0 1 0 2.667 0Zm-13.085-2.666H5.333a8 8 0 0 1-1.842-.223l3.333 7.443A3.562 3.562 0 0 0 10.077 32a3.282 3.282 0 0 0 2.99-4.63l-2.152-4.703Z"/>
  </g>
  <defs>
    <clipPath id="a">
      <path fill="#fff" d="M0 0h32v32H0z"/>
    </clipPath>
  </defs>
</svg>
