<?xml version="1.0" encoding="UTF-8" standalone="no"?>
<!-- Created with Inkscape (http://www.inkscape.org/) -->

<svg
   width="512"
   height="512"
   viewBox="0 0 512 512"
   version="1.1"
   id="svg1"
   inkscape:version="1.4 (86a8ad7, 2024-10-11)"
   sodipodi:docname="Panda rojo.svg"
   xmlns:inkscape="http://www.inkscape.org/namespaces/inkscape"
   xmlns:sodipodi="http://sodipodi.sourceforge.net/DTD/sodipodi-0.dtd"
   xmlns="http://www.w3.org/2000/svg"
   xmlns:svg="http://www.w3.org/2000/svg">
  <sodipodi:namedview
     id="namedview1"
     pagecolor="#505050"
     bordercolor="#ffffff"
     borderopacity="1"
     inkscape:showpageshadow="0"
     inkscape:pageopacity="0"
     inkscape:pagecheckerboard="1"
     inkscape:deskcolor="#505050"
     inkscape:document-units="px"
     inkscape:zoom="1.1255704"
     inkscape:cx="251.42808"
     inkscape:cy="275.86014"
     inkscape:window-width="1920"
     inkscape:window-height="1017"
     inkscape:window-x="1912"
     inkscape:window-y="-8"
     inkscape:window-maximized="1"
     inkscape:current-layer="layer1" />
  <defs
     id="defs1">
    <clipPath
       clipPathUnits="userSpaceOnUse"
       id="clipPath52">
      <path
         class="st2"
         d="m 414.3053,263.99032 c -7.25762,9.42661 -16.55878,16.41845 -27.91601,20.95616 -7.50143,3.00803 -15.6165,4.59643 -23.8118,5.16726 -25.44821,1.76887 -47.6709,-5.63201 -66.67999,-22.21205 -0.38232,-0.33008 -0.90088,-0.51258 -1.42765,-0.48426 v 0 c -2.28638,0.12293 -3.83698,2.1398 -3.10967,4.07428 0.53722,1.45382 1.4817,2.77552 2.81034,3.95639 19.7237,18.82574 44.09359,27.20317 73.13138,25.1211 1.23471,19.70954 1.44466,39.40406 0.62936,59.07357 -0.15302,0.72952 -0.55427,1.28206 -1.21494,1.6582 -0.66066,0.37613 -1.53152,0.47303 -2.33671,0.37608 -22.74357,-2.80458 -45.60535,-4.20025 -68.58404,-4.16705 -18.75605,-0.23387 -37.42819,0.76994 -56.03888,3.01274 -12.6633,1.53237 -25.29407,3.21324 -37.90346,5.04323 -19.81005,4.13062 -39.56146,8.62872 -59.27527,13.51554 -3.29661,0.81841 -6.70392,-0.99206 -7.41191,-3.96947 -4.86057,-20.59658 -8.20774,-41.43483 -10.03093,-62.52529 28.82371,-1.58971 51.52008,-12.75799 68.0885,-33.51483 0.85001,-1.06756 1.35879,-2.35721 1.25896,-3.66423 -0.13766,-1.86599 -1.38123,-2.62062 -3.71932,-2.26451 -1.13575,0.17127 -2.15612,0.71701 -2.91368,1.48906 -20.0328,20.26188 -43.07503,29.31486 -69.11483,27.16837 C 96.58629,299.97587 76.161325,289.72334 63.526592,273.42176 56.635631,264.52538 52.401181,254.4944 50.812709,243.33937 48.756434,228.93356 51.549741,214.21691 59.068428,201.34003 69.589426,183.30266 87.160742,171.368 111.7936,165.53551 c 17.80398,-3.19123 34.80777,-1.26022 51.01005,5.77306 8.42016,-12.02369 19.38888,-21.62978 32.91739,-28.81885 3.40617,-1.52556 6.85881,-2.86327 10.35727,-4.02312 24.51018,-8.14011 51.76194,-6.69994 74.4889,4.82138 9.97136,5.05408 18.8993,11.80722 26.80551,20.24828 14.65283,-9.02273 30.89127,-12.74091 48.73914,-11.13579 32.10905,4.06428 54.20222,18.18431 66.25781,42.37131 4.59502,9.21015 7.3253,19.12163 7.31104,29.20071 -0.0324,14.45802 -5.15824,27.78732 -15.38728,40.00846 z"
         id="path52"
         style="display:none;stroke:none;stroke-width:5.29815;stroke-dasharray:none;stroke-opacity:1" />
      <path
         id="lpe_path-effect52"
         style="stroke:none;stroke-width:5.29815;stroke-dasharray:none;stroke-opacity:1"
         class="powerclip"
         d="M 47.205357,280.78321 H 493.69571 v 364.8381 H 47.205357 Z m 367.099943,-16.79289 -0.0119,-0.009 c 10.22904,-12.22114 15.35488,-25.55044 15.38728,-40.00846 0.0143,-10.07908 -2.71602,-19.99056 -7.31104,-29.20071 -12.05559,-24.187 -34.14876,-38.30703 -66.25781,-42.37131 -17.84787,-1.60512 -34.08631,2.11306 -48.73914,11.13579 -7.90621,-8.44106 -16.83415,-15.1942 -26.80551,-20.24828 -22.72696,-11.52132 -49.97872,-12.96149 -74.4889,-4.82138 -3.49846,1.15985 -6.9511,2.49756 -10.35727,4.02312 -13.52851,7.18907 -24.49723,16.79516 -32.91739,28.81885 -16.20228,-7.03328 -33.20607,-8.96429 -51.01005,-5.77306 -24.632858,5.83249 -42.204174,17.76715 -52.725172,35.80452 -7.518687,12.87688 -10.311994,27.59353 -8.255719,41.99934 1.588472,11.15503 5.822922,21.18601 12.713883,30.08239 12.634733,16.30158 33.059698,26.55411 55.208158,28.37885 26.0398,2.14649 49.08203,-6.90649 69.11483,-27.16837 0.75756,-0.77205 1.77793,-1.31779 2.91368,-1.48906 2.33809,-0.35611 3.58166,0.39852 3.71932,2.26451 0.0998,1.30702 -0.40895,2.59667 -1.25896,3.66423 -16.56842,20.75684 -39.26479,31.92512 -68.0885,33.51483 1.82319,21.09046 5.17036,41.92871 10.03093,62.52529 0.70799,2.97741 4.1153,4.78788 7.41191,3.96947 19.71381,-4.88682 39.46522,-9.38492 59.27527,-13.51554 12.60939,-1.82999 25.24016,-3.51086 37.90346,-5.04323 18.61069,-2.2428 37.28283,-3.24661 56.03888,-3.01274 22.97869,-0.0332 45.84047,1.36247 68.58404,4.16705 0.80519,0.0969 1.67605,5e-5 2.33671,-0.37608 0.66067,-0.37614 1.06192,-0.92868 1.21494,-1.6582 0.8153,-19.66951 0.60535,-39.36403 -0.62936,-59.07357 -29.03779,2.08207 -53.40768,-6.29536 -73.13138,-25.1211 -1.32864,-1.18087 -2.27312,-2.50257 -2.81034,-3.95639 -0.72731,-1.93448 0.82329,-3.95135 3.10967,-4.07428 v 0 c 0.52677,-0.0283 1.04533,0.15418 1.42765,0.48426 19.00909,16.58004 41.23178,23.98092 66.67999,22.21205 8.1953,-0.57083 16.31037,-2.15923 23.8118,-5.16726 11.35723,-4.53771 20.65839,-11.52955 27.91601,-20.95616 z" />
    </clipPath>
    <inkscape:path-effect
       effect="powerclip"
       message=""
       id="path-effect52"
       is_visible="true"
       lpeversion="1"
       inverse="true"
       flatten="false"
       hide_clip="false" />
  </defs>
  <g
     inkscape:label="Capa 1"
     inkscape:groupmode="layer"
     id="layer1">
    <g
       id="g24"
       transform="matrix(1.014389,0,0,1.014389,-21.311085,-138.3049)">
      <g
         id="Capa_2"
         transform="matrix(0.89061663,0,0,1,32.095674,-4.397546)"
         style="stroke-width:7.46404;stroke-dasharray:none"
         clip-path="url(#clipPath52)"
         inkscape:path-effect="#path-effect52">
        <path
           class="st2"
           d="m 467.43,342.57 c -3.16,27.3 -10.66,53.3 -22.5,78 0.89,1.24 1.78,2.49 2.66,3.73 -6.52,-7.59 -14.04,-14.31 -22.31,-20.04 l -16.12,-11.18 c -13.97,-9.67 -28.92,-17.71 -44.56,-24.01 -18.16,-7.3 -37.25,-12.27 -56.81,-14.71 0,-0.01 0.01,-0.02 0.02,-0.03 15.1,-24.16 66.12,-51.76 66.12,-51.76 7.69,-4.1 15.57,-7.79 23.66,-11.07 9.41,-3.82 19.49,-5.85 29.65,-5.71 30.37,0.44 43.76,19.37 40.19,56.78 z"
           id="path14"
           style="fill:#f2e0c0;fill-rule:evenodd;stroke-width:7.46404;stroke-dasharray:none"
           inkscape:original-d="m 467.43,342.57 c -3.16,27.3 -10.66,53.3 -22.5,78 0.89,1.24 1.78,2.49 2.66,3.73 -6.52,-7.59 -14.04,-14.31 -22.31,-20.04 l -16.12,-11.18 c -13.97,-9.67 -28.92,-17.71 -44.56,-24.01 -18.16,-7.3 -37.25,-12.27 -56.81,-14.71 0,-0.01 0.01,-0.02 0.02,-0.03 15.1,-24.16 66.12,-51.76 66.12,-51.76 7.69,-4.1 15.57,-7.79 23.66,-11.07 9.41,-3.82 19.49,-5.85 29.65,-5.71 30.37,0.44 43.76,19.37 40.19,56.78 z" />
        <path
           class="st2"
           d="m 199.35,359.05 c -10.83,2.43 -21.37,6.04 -31.43,10.79 -8.65,4.1 -13.25,6.66 -22.33,12 -1.68,0.99 -3.62,2.38 -5.72,4.05 -11.73,9.32 -28.35,27.27 -32.07,31.7 -2.31,2.75 -4.04,5.19 -5.77,7.63 -1.73,2.45 -3.46,4.9 -5.75,7.66 -1.36,1.64 -2.62,3.38 -3.78,5.17 -5.89,9.17 -7.66,12.89 -12,21.52 l -5.61,11.16 -3.92,7.79 c -1.31,2.6 -2.5,5.25 -3.57,7.96 -0.85,2.12 -1.68,4.14 -2.5,6.12 -8.82,21.39 -13.33,44.37 -12.61,67.5 0.03,1.15 0.08,2.3 0.14,3.46 h -0.01 c -0.06,-1.17 -0.11,-2.32 -0.14,-3.47 -0.72,-23.12 3.79,-46.11 12.61,-67.5 0.81,-1.97 1.65,-4 2.49,-6.12 1.08,-2.7 2.26,-5.36 3.57,-7.96 l 16.71,-33.2 -0.74,1.24 C 73.63,421.29 64.29,394.62 58.93,366.57 c -5.58,-45.07 13.75,-61.73 58,-50 1.94,0.56 3.87,1.15 5.79,1.76 4.46,1.44 8.86,3.02 13.21,4.74 21.88,8.21 50.79,27.28 63.38,35.95 0.02,0.01 0.03,0.02 0.04,0.03 z"
           id="path15"
           style="fill:#f2e0c0;fill-rule:evenodd;stroke-width:7.46404;stroke-dasharray:none"
           inkscape:original-d="m 199.35,359.05 c -10.83,2.43 -21.37,6.04 -31.43,10.79 -8.65,4.1 -13.25,6.66 -22.33,12 -1.68,0.99 -3.62,2.38 -5.72,4.05 -11.73,9.32 -28.35,27.27 -32.07,31.7 -2.31,2.75 -4.04,5.19 -5.77,7.63 -1.73,2.45 -3.46,4.9 -5.75,7.66 -1.36,1.64 -2.62,3.38 -3.78,5.17 -5.89,9.17 -7.66,12.89 -12,21.52 l -5.61,11.16 -3.92,7.79 c -1.31,2.6 -2.5,5.25 -3.57,7.96 -0.85,2.12 -1.68,4.14 -2.5,6.12 -8.82,21.39 -13.33,44.37 -12.61,67.5 0.03,1.15 0.08,2.3 0.14,3.46 h -0.01 c -0.06,-1.17 -0.11,-2.32 -0.14,-3.47 -0.72,-23.12 3.79,-46.11 12.61,-67.5 0.81,-1.97 1.65,-4 2.49,-6.12 1.08,-2.7 2.26,-5.36 3.57,-7.96 l 16.71,-33.2 -0.74,1.24 C 73.63,421.29 64.29,394.62 58.93,366.57 c -5.58,-45.07 13.75,-61.73 58,-50 1.94,0.56 3.87,1.15 5.79,1.76 4.46,1.44 8.86,3.02 13.21,4.74 21.88,8.21 50.79,27.28 63.38,35.95 0.02,0.01 0.03,0.02 0.04,0.03 z" />
        <path
           class="st2"
           d="m 488.59,509.07 c -0.05,0.5 -0.1,1 -0.16,1.5 -2.16,5.64 -5.32,10.64 -9.5,15 -2.82,3.02 -5.68,6 -8.57,8.94 -1.04,1.06 -2.09,2.12 -3.15,3.17 -0.52,0.53 -1.04,1.05 -1.57,1.56 -0.8,0.8 -1.6,1.58 -2.4,2.35 -0.72,0.73 -1.45,1.43 -2.18,2.13 -0.83,0.8 -1.67,1.6 -2.51,2.39 -0.67,0.65 -1.34,1.29 -2.02,1.91 -1.12,1.06 -2.25,2.1 -3.38,3.14 -0.24,0.23 -0.48,0.45 -0.72,0.67 -1.19,1.09 -2.39,2.18 -3.6,3.26 -0.52,0.48 -1.05,0.95 -1.57,1.4 -0.97,0.87 -1.94,1.73 -2.92,2.58 -0.7,0.62 -1.4,1.23 -2.11,1.83 -0.56,0.5 -1.12,0.98 -1.68,1.46 -0.33,0.28 -0.66,0.56 -0.99,0.84 -0.56,0.48 -1.12,0.96 -1.68,1.42 -0.94,0.8 -1.88,1.59 -2.83,2.37 -0.57,0.48 -1.13,0.95 -1.7,1.41 -0.93,0.78 -1.87,1.54 -2.81,2.29 -0.68,0.56 -1.36,1.11 -2.04,1.65 -0.91,0.74 -1.83,1.47 -2.75,2.18 -0.55,0.44 -1.1,0.88 -1.65,1.3 -0.98,0.78 -1.98,1.55 -2.97,2.31 -0.62,0.48 -1.25,0.96 -1.88,1.44 -0.62,0.48 -1.23,0.94 -1.85,1.4 -1.09,0.83 -2.19,1.65 -3.29,2.46 -3.02,2.24 -6.08,4.45 -9.16,6.62 -0.01,0.01 -0.01,0.02 -0.02,0.02 -23.59,15.42 -49.26,25.76 -77,31 -5.48,0.86 -10.98,1.35 -16.5,1.48 h -0.01 c -1.5,0.03 -2.99,0.04 -4.49,0.02 34.66,-6.91 40.83,-31.58 61.84,-60 9.63,-17.47 5.27,-26.12 -3.7,-43.98 -4.12,-8.01 -6.75,-14.33 -9.08,-19.5 -0.74,-1.65 -1.45,-3.18 -2.17,-4.61 -0.5,-0.99 -1,-1.93 -1.52,-2.83 -0.03,-0.05 -0.06,-0.1 -0.09,-0.15 -0.37,-0.64 -0.75,-1.26 -1.15,-1.86 -0.59,-0.9 -1.21,-1.76 -1.89,-2.59 -0.51,-0.63 -1.04,-1.23 -1.61,-1.8 -0.18,-0.19 -0.37,-0.39 -0.57,-0.58 -0.52,-0.52 -1.07,-1.02 -1.65,-1.49 -0.14,-0.12 -0.29,-0.24 -0.44,-0.36 -0.35,-0.28 -0.72,-0.57 -1.1,-0.85 -0.38,-0.28 -0.77,-0.55 -1.18,-0.83 -1.42,-0.96 -3.01,-1.89 -4.81,-2.8 -1.04,-0.53 -2.14,-1.05 -3.31,-1.56 -0.3,-0.13 -0.6,-0.26 -0.9,-0.39 -0.26,-0.11 -0.52,-0.22 -0.78,-0.33 -0.27,-0.11 -0.53,-0.22 -0.8,-0.33 -0.54,-0.23 -1.09,-0.45 -1.67,-0.66 -0.43,-0.17 -0.86,-0.33 -1.31,-0.5 -1.33,-0.51 -2.75,-1.01 -4.25,-1.52 -0.91,-0.15 -1.78,-0.3 -2.65,-0.45 h -0.01 c -15.36,-2.53 -25.04,-3.53 -30.76,0.31 -4.95,3.33 -6.94,10.29 -7.07,23.02 -0.02,1.33 -0.01,2.72 0.01,4.17 0.91,4.63 0.49,6.27 2.92,10.31 10.05,9.05 14.25,21.2 22.2,32.15 10.74,17.49 13.4,36.15 8,56 -4.02,9.73 -10.19,17.73 -18.5,24 0,0 -4.06,3.59 -6,4.5 -0.46,0.28 -0.92,0.56 -1.38,0.83 -0.02,0.01 -0.03,0.02 -0.05,0.03 -20.7,12.27 -42.9,15.65 -66.57,10.14 -7.61,-2.2 -14.98,-4.91 -22.08,-8.14 q 0,0 -0.02,-0.01 c -0.97,-0.44 -1.94,-0.89 -2.9,-1.35 -27.36,-19.14 -39.84,-45.46 -27.48,-76.99 1.25,-2.83 1.33,-4.7 3.08,-7.21 -0.12,-0.61 2.59,-3.15 2.04,-3.21 5.55,-4.55 7.86,-8.79 10.31,-15.57 4.95,-4.8 11.81,-9.12 15.86,-14.98 1.27,-4.42 2.01,-8.43 2.17,-12.14 0.49,-10.25 -3.32,-18.14 -11.89,-25.68 -1.23,-1.08 -2.57,-2.16 -4,-3.24 -11.67,-3.47 -17.55,-4.55 -27.43,1.27 -0.57,0.33 -1.16,0.69 -1.76,1.07 -0.29,0.2 -0.57,0.41 -0.85,0.62 -0.01,0 -0.02,0 -0.03,0.02 -22.89,16.61 -39.21,38.68 -48.74,65.33 -3.53,15.85 0.45,26.71 7.98,40.86 20.61,24.73 42.92,43.16 74.65,49.76 h -0.08 c -36.32,0.98 -69.56,-7.32 -98.25,-24.96 q 0,0 -0.01,-0.02 c -0.58,-0.35 -1.15,-0.71 -1.72,-1.07 -0.58,-0.36 -1.15,-0.74 -1.73,-1.11 -0.59,-0.38 -1.17,-0.76 -1.75,-1.15 -0.64,-0.42 -1.27,-0.85 -1.91,-1.3 -0.51,-0.35 -1.02,-0.71 -1.53,-1.07 -0.58,-0.4 -1.14,-0.81 -1.71,-1.22 -2.98,-2.15 -5.91,-4.42 -8.77,-6.8 -0.57,-0.46 -1.13,-0.93 -1.68,-1.4 -0.42,-0.36 -0.83,-0.71 -1.23,-1.06 -0.51,-0.45 -1.02,-0.9 -1.53,-1.35 -1.07,-0.95 -2.13,-1.91 -3.18,-2.89 -1.05,-0.98 -2.09,-1.97 -3.12,-2.98 -5.04,-4.93 -9.43,-10.47 -13.16,-16.45 l -0.05,-0.08 c -0.06,-1.16 -0.11,-2.31 -0.14,-3.46 -0.72,-23.13 3.79,-46.11 12.61,-67.5 0.82,-1.98 1.65,-4 2.5,-6.12 1.07,-2.71 2.26,-5.36 3.57,-7.96 l 3.92,-7.79 5.61,-11.16 c 4.34,-8.63 6.11,-12.35 12,-21.52 1.16,-1.79 2.42,-3.53 3.78,-5.17 2.29,-2.76 4.02,-5.21 5.75,-7.66 1.73,-2.44 3.46,-4.88 5.77,-7.63 3.72,-4.43 20.34,-22.38 32.07,-31.7 2.1,-1.67 4.04,-3.06 5.72,-4.05 9.08,-5.34 13.68,-7.9 22.33,-12 10.06,-4.75 20.6,-8.36 31.43,-10.79 -0.01,-0.01 -0.02,-0.02 -0.04,-0.03 0.41,-0.08 0.81,-0.15 1.22,-0.23 0.06,-0.01 0.13,-0.03 0.19,-0.04 18.4,-3.47 27.79,-4.77 47.21,-6.18 25.19,-0.94 31.83,-0.33 48,0.5 2.8,0.29 5.6,0.58 8.4,0.88 0.2,0.01 0.4,0.03 0.59,0.06 0.48,0.05 0.96,0.11 1.44,0.16 0.48,0.05 0.96,0.1 1.45,0.16 -0.01,0.01 -0.02,0.02 -0.02,0.03 19.56,2.44 38.65,7.41 56.81,14.71 15.64,6.3 30.59,14.34 44.56,24.01 l 16.12,11.18 c 8.27,5.73 15.79,12.45 22.31,20.04 4.5,6.3 9,12.63 13.5,18.99 0.11,0.15 0.21,0.29 0.31,0.44 8.15,11.53 15.02,23.92 20.28,37.01 1.11,2.78 2.16,5.58 3.15,8.4 0.25,0.7 0.49,1.4 0.73,2.1 0.12,0.33 0.23,0.66 0.34,0.99 0.14,0.41 0.28,0.83 0.41,1.25 0.15,0.42 0.28,0.84 0.42,1.26 1.5,4.62 2.26,9.48 1.86,14.33 z"
           id="path16"
           style="fill:#f2e0c0;fill-rule:evenodd;stroke-width:7.46404;stroke-dasharray:none"
           inkscape:original-d="m 488.59,509.07 c -0.05,0.5 -0.1,1 -0.16,1.5 -2.16,5.64 -5.32,10.64 -9.5,15 -2.82,3.02 -5.68,6 -8.57,8.94 -1.04,1.06 -2.09,2.12 -3.15,3.17 -0.52,0.53 -1.04,1.05 -1.57,1.56 -0.8,0.8 -1.6,1.58 -2.4,2.35 -0.72,0.73 -1.45,1.43 -2.18,2.13 -0.83,0.8 -1.67,1.6 -2.51,2.39 -0.67,0.65 -1.34,1.29 -2.02,1.91 -1.12,1.06 -2.25,2.1 -3.38,3.14 -0.24,0.23 -0.48,0.45 -0.72,0.67 -1.19,1.09 -2.39,2.18 -3.6,3.26 -0.52,0.48 -1.05,0.95 -1.57,1.4 -0.97,0.87 -1.94,1.73 -2.92,2.58 -0.7,0.62 -1.4,1.23 -2.11,1.83 -0.56,0.5 -1.12,0.98 -1.68,1.46 -0.33,0.28 -0.66,0.56 -0.99,0.84 -0.56,0.48 -1.12,0.96 -1.68,1.42 -0.94,0.8 -1.88,1.59 -2.83,2.37 -0.57,0.48 -1.13,0.95 -1.7,1.41 -0.93,0.78 -1.87,1.54 -2.81,2.29 -0.68,0.56 -1.36,1.11 -2.04,1.65 -0.91,0.74 -1.83,1.47 -2.75,2.18 -0.55,0.44 -1.1,0.88 -1.65,1.3 -0.98,0.78 -1.98,1.55 -2.97,2.31 -0.62,0.48 -1.25,0.96 -1.88,1.44 -0.62,0.48 -1.23,0.94 -1.85,1.4 -1.09,0.83 -2.19,1.65 -3.29,2.46 -3.02,2.24 -6.08,4.45 -9.16,6.62 -0.01,0.01 -0.01,0.02 -0.02,0.02 -23.59,15.42 -49.26,25.76 -77,31 -5.48,0.86 -10.98,1.35 -16.5,1.48 h -0.01 c -1.5,0.03 -2.99,0.04 -4.49,0.02 34.66,-6.91 40.83,-31.58 61.84,-60 9.63,-17.47 5.27,-26.12 -3.7,-43.98 -4.12,-8.01 -6.75,-14.33 -9.08,-19.5 -0.74,-1.65 -1.45,-3.18 -2.17,-4.61 -0.5,-0.99 -1,-1.93 -1.52,-2.83 -0.03,-0.05 -0.06,-0.1 -0.09,-0.15 -0.37,-0.64 -0.75,-1.26 -1.15,-1.86 -0.59,-0.9 -1.21,-1.76 -1.89,-2.59 -0.51,-0.63 -1.04,-1.23 -1.61,-1.8 -0.18,-0.19 -0.37,-0.39 -0.57,-0.58 -0.52,-0.52 -1.07,-1.02 -1.65,-1.49 -0.14,-0.12 -0.29,-0.24 -0.44,-0.36 -0.35,-0.28 -0.72,-0.57 -1.1,-0.85 -0.38,-0.28 -0.77,-0.55 -1.18,-0.83 -1.42,-0.96 -3.01,-1.89 -4.81,-2.8 -1.04,-0.53 -2.14,-1.05 -3.31,-1.56 -0.3,-0.13 -0.6,-0.26 -0.9,-0.39 -0.26,-0.11 -0.52,-0.22 -0.78,-0.33 -0.27,-0.11 -0.53,-0.22 -0.8,-0.33 -0.54,-0.23 -1.09,-0.45 -1.67,-0.66 -0.43,-0.17 -0.86,-0.33 -1.31,-0.5 -1.33,-0.51 -2.75,-1.01 -4.25,-1.52 -0.91,-0.15 -1.78,-0.3 -2.65,-0.45 h -0.01 c -15.36,-2.53 -25.04,-3.53 -30.76,0.31 -4.95,3.33 -6.94,10.29 -7.07,23.02 -0.02,1.33 -0.01,2.72 0.01,4.17 0.91,4.63 0.49,6.27 2.92,10.31 10.05,9.05 14.25,21.2 22.2,32.15 10.74,17.49 13.4,36.15 8,56 -4.02,9.73 -10.19,17.73 -18.5,24 0,0 -4.06,3.59 -6,4.5 -0.46,0.28 -0.92,0.56 -1.38,0.83 -0.02,0.01 -0.03,0.02 -0.05,0.03 -20.7,12.27 -42.9,15.65 -66.57,10.14 -7.61,-2.2 -14.98,-4.91 -22.08,-8.14 q 0,0 -0.02,-0.01 c -0.97,-0.44 -1.94,-0.89 -2.9,-1.35 -27.36,-19.14 -39.84,-45.46 -27.48,-76.99 1.25,-2.83 1.33,-4.7 3.08,-7.21 -0.12,-0.61 2.59,-3.15 2.04,-3.21 5.55,-4.55 7.86,-8.79 10.31,-15.57 4.95,-4.8 11.81,-9.12 15.86,-14.98 1.27,-4.42 2.01,-8.43 2.17,-12.14 0.49,-10.25 -3.32,-18.14 -11.89,-25.68 -1.23,-1.08 -2.57,-2.16 -4,-3.24 -11.67,-3.47 -17.55,-4.55 -27.43,1.27 -0.57,0.33 -1.16,0.69 -1.76,1.07 -0.29,0.2 -0.57,0.41 -0.85,0.62 -0.01,0 -0.02,0 -0.03,0.02 -22.89,16.61 -39.21,38.68 -48.74,65.33 -3.53,15.85 0.45,26.71 7.98,40.86 20.61,24.73 42.92,43.16 74.65,49.76 h -0.08 c -36.32,0.98 -69.56,-7.32 -98.25,-24.96 q 0,0 -0.01,-0.02 c -0.58,-0.35 -1.15,-0.71 -1.72,-1.07 -0.58,-0.36 -1.15,-0.74 -1.73,-1.11 -0.59,-0.38 -1.17,-0.76 -1.75,-1.15 -0.64,-0.42 -1.27,-0.85 -1.91,-1.3 -0.51,-0.35 -1.02,-0.71 -1.53,-1.07 -0.58,-0.4 -1.14,-0.81 -1.71,-1.22 -2.98,-2.15 -5.91,-4.42 -8.77,-6.8 -0.57,-0.46 -1.13,-0.93 -1.68,-1.4 -0.42,-0.36 -0.83,-0.71 -1.23,-1.06 -0.51,-0.45 -1.02,-0.9 -1.53,-1.35 -1.07,-0.95 -2.13,-1.91 -3.18,-2.89 -1.05,-0.98 -2.09,-1.97 -3.12,-2.98 -5.04,-4.93 -9.43,-10.47 -13.16,-16.45 l -0.05,-0.08 c -0.06,-1.16 -0.11,-2.31 -0.14,-3.46 -0.72,-23.13 3.79,-46.11 12.61,-67.5 0.82,-1.98 1.65,-4 2.5,-6.12 1.07,-2.71 2.26,-5.36 3.57,-7.96 l 3.92,-7.79 5.61,-11.16 c 4.34,-8.63 6.11,-12.35 12,-21.52 1.16,-1.79 2.42,-3.53 3.78,-5.17 2.29,-2.76 4.02,-5.21 5.75,-7.66 1.73,-2.44 3.46,-4.88 5.77,-7.63 3.72,-4.43 20.34,-22.38 32.07,-31.7 2.1,-1.67 4.04,-3.06 5.72,-4.05 9.08,-5.34 13.68,-7.9 22.33,-12 10.06,-4.75 20.6,-8.36 31.43,-10.79 -0.01,-0.01 -0.02,-0.02 -0.04,-0.03 0.41,-0.08 0.81,-0.15 1.22,-0.23 0.06,-0.01 0.13,-0.03 0.19,-0.04 18.4,-3.47 27.79,-4.77 47.21,-6.18 25.19,-0.94 31.83,-0.33 48,0.5 2.8,0.29 5.6,0.58 8.4,0.88 0.2,0.01 0.4,0.03 0.59,0.06 0.48,0.05 0.96,0.11 1.44,0.16 0.48,0.05 0.96,0.1 1.45,0.16 -0.01,0.01 -0.02,0.02 -0.02,0.03 19.56,2.44 38.65,7.41 56.81,14.71 15.64,6.3 30.59,14.34 44.56,24.01 l 16.12,11.18 c 8.27,5.73 15.79,12.45 22.31,20.04 4.5,6.3 9,12.63 13.5,18.99 0.11,0.15 0.21,0.29 0.31,0.44 8.15,11.53 15.02,23.92 20.28,37.01 1.11,2.78 2.16,5.58 3.15,8.4 0.25,0.7 0.49,1.4 0.73,2.1 0.12,0.33 0.23,0.66 0.34,0.99 0.14,0.41 0.28,0.83 0.41,1.25 0.15,0.42 0.28,0.84 0.42,1.26 1.5,4.62 2.26,9.48 1.86,14.33 z" />
        <path
           class="st3"
           d="m 488.59,508.62 v 0.45 c -0.05,0.5 -0.1,1 -0.16,1.5 -2.16,5.64 -5.32,10.64 -9.5,15 -2.82,3.02 -5.68,6 -8.57,8.94 -1.04,1.06 -2.09,2.12 -3.15,3.17 -0.52,0.53 -1.04,1.05 -1.57,1.56 -0.8,0.8 -1.6,1.58 -2.4,2.35 -0.72,0.73 -1.45,1.43 -2.18,2.13 -0.83,0.8 -1.67,1.6 -2.51,2.39 -0.67,0.65 -1.34,1.29 -2.02,1.91 -1.12,1.06 -2.25,2.1 -3.38,3.14 -0.24,0.23 -0.48,0.45 -0.72,0.67 -1.19,1.09 -2.39,2.18 -3.6,3.26 -0.52,0.48 -1.05,0.95 -1.57,1.4 -0.97,0.87 -1.94,1.73 -2.92,2.58 -0.7,0.62 -1.4,1.23 -2.11,1.83 -0.56,0.5 -1.12,0.98 -1.68,1.46 -0.33,0.28 -0.66,0.56 -0.99,0.84 -0.56,0.48 -1.12,0.96 -1.68,1.42 -0.94,0.8 -1.88,1.59 -2.83,2.37 -0.57,0.48 -1.13,0.95 -1.7,1.41 -0.93,0.78 -1.87,1.54 -2.81,2.29 -0.68,0.56 -1.36,1.11 -2.04,1.65 -0.91,0.74 -1.83,1.47 -2.75,2.18 -0.55,0.44 -1.1,0.88 -1.65,1.3 -0.98,0.78 -1.98,1.55 -2.97,2.31 -0.62,0.48 -1.25,0.96 -1.88,1.44 -0.62,0.48 -1.23,0.94 -1.85,1.4 -1.09,0.83 -2.19,1.65 -3.29,2.46 -3.02,2.24 -6.08,4.45 -9.16,6.62 0.86,-0.98 33.17,-37.89 22.16,-71.94 -11.16,-34.5 -50.33,-58.18 -50.33,-58.18 0,0 13.49,27.31 -12.46,39.37 l -8.33,-0.21 c -0.74,-1.65 -1.45,-3.18 -2.17,-4.61 -0.5,-0.99 -1.01,-1.93 -1.52,-2.83 -0.03,-0.05 -0.06,-0.1 -0.09,-0.15 -0.37,-0.64 -0.75,-1.26 -1.15,-1.86 -0.6,-0.9 -1.22,-1.76 -1.89,-2.59 -0.51,-0.61 -1.04,-1.21 -1.61,-1.8 -0.18,-0.19 -0.37,-0.39 -0.57,-0.58 -0.52,-0.52 -1.07,-1.02 -1.65,-1.49 -0.14,-0.12 -0.29,-0.24 -0.44,-0.36 -0.35,-0.28 -0.72,-0.57 -1.1,-0.85 -0.38,-0.28 -0.77,-0.55 -1.18,-0.83 -1.42,-0.95 -3.01,-1.88 -4.81,-2.8 -1.04,-0.52 -2.14,-1.04 -3.31,-1.56 -0.3,-0.13 -0.6,-0.26 -0.9,-0.39 -0.26,-0.11 -0.52,-0.22 -0.78,-0.33 -0.27,-0.11 -0.53,-0.22 -0.8,-0.33 -0.54,-0.23 -1.09,-0.45 -1.67,-0.66 -0.43,-0.17 -0.86,-0.33 -1.31,-0.5 -1.33,-0.5 -2.75,-1 -4.25,-1.51 -1.33,0.7 -2.64,1.39 -3.94,2.08 -1.71,0.91 -3.4,1.8 -5.05,2.68 -0.01,0 -0.02,0.01 -0.02,0.01 -6.95,3.71 -13.29,7.14 -19.15,10.25 -0.31,0.16 -0.62,0.33 -0.92,0.49 -0.55,0.29 -1.06,0.58 -1.53,0.85 -4.59,2.69 -5.65,4.62 -9.88,6.51 -1.54,0.68 -3.49,1.36 -6.19,2.07 -3.77,1 -8.99,2.05 -16.53,3.25 l -49.65,-1.3 c -1.41,-0.03 -2.78,-0.3 -4.11,-0.74 -0.65,-0.21 -1.28,-0.46 -1.91,-0.75 -4.99,-2.26 -9.51,-6.61 -14.02,-9.6 l -0.11,-0.07 -0.51,-0.54 c -13.51,-14.25 -18.95,-22.32 -28.62,-17.4 -0.59,0.3 -1.19,0.64 -1.81,1.04 -0.28,0.2 -0.57,0.4 -0.86,0.61 -0.01,0 -0.02,0 -0.03,0.02 -8.95,6.24 -21.81,13.03 -28.6,20.8 -0.04,0.03 -0.07,0.07 -0.11,0.12 -11.97,-0.51 -18.33,-19.6 -18.07,-30.24 0,0 -41.78,49.75 -38.4,94.36 1.39,18.44 10.51,34.01 20.73,45.93 q 0,0 0.01,0.02 c -0.58,-0.36 -1.16,-0.72 -1.73,-1.09 -0.58,-0.36 -1.15,-0.74 -1.73,-1.11 -0.59,-0.38 -1.17,-0.76 -1.75,-1.15 -0.64,-0.42 -1.27,-0.85 -1.91,-1.3 -0.51,-0.35 -1.02,-0.71 -1.53,-1.07 -0.58,-0.4 -1.14,-0.81 -1.71,-1.22 -2.98,-2.15 -5.91,-4.42 -8.77,-6.8 -0.57,-0.46 -1.13,-0.93 -1.68,-1.4 -0.42,-0.36 -0.83,-0.71 -1.23,-1.06 -0.51,-0.45 -1.02,-0.9 -1.53,-1.35 -1.07,-0.95 -2.13,-1.91 -3.18,-2.89 -1.05,-0.98 -2.09,-1.97 -3.12,-2.98 -5.04,-4.93 -9.43,-10.47 -13.16,-16.45 l -0.05,-0.08 c -0.06,-1.16 -0.11,-2.31 -0.14,-3.46 -0.72,-23.13 3.79,-46.11 12.61,-67.5 0.82,-1.98 1.65,-4 2.5,-6.12 1.07,-2.71 2.26,-5.36 3.57,-7.96 l 3.92,-7.79 5.61,-11.16 c 4.34,-8.63 6.11,-12.35 12,-21.52 1.16,-1.79 2.42,-3.53 3.78,-5.17 2.29,-2.76 4.02,-5.21 5.75,-7.66 1.73,-2.44 3.46,-4.88 5.77,-7.63 3.72,-4.43 20.34,-22.38 32.07,-31.7 2.1,-1.67 4.04,-3.06 5.72,-4.05 9.08,-5.34 13.68,-7.9 22.33,-12 10.06,-4.75 20.6,-8.36 31.43,-10.79 0.4,-0.09 0.79,-0.17 1.18,-0.26 0.06,-0.01 0.13,-0.03 0.19,-0.04 1.13,-0.24 2.26,-0.47 3.39,-0.69 18.61,-3.56 23.24,-4.01 43.82,-5.5 25.19,-0.94 31.83,-0.33 48,0.5 2.52,0.26 5.05,0.52 7.57,0.79 0.28,0.03 0.55,0.06 0.83,0.1 0.2,0.01 0.4,0.03 0.59,0.06 0.48,0.05 0.96,0.11 1.44,0.16 0.48,0.06 0.95,0.13 1.43,0.19 19.56,2.44 38.65,7.41 56.81,14.71 15.64,6.3 30.59,14.34 44.56,24.01 l 16.12,11.18 c 8.27,5.73 15.79,12.45 22.31,20.04 3.87,4.5 7.39,9.31 10.51,14.39 0.97,1.58 1.97,3.13 2.99,4.6 0.11,0.15 0.21,0.29 0.31,0.44 0.24,0.34 0.48,0.68 0.73,1.01 5.11,6.94 9.75,14.22 13.45,22 2.19,4.6 4.23,9.27 6.1,14 1.11,2.78 2.16,5.58 3.15,8.4 0.25,0.7 0.49,1.4 0.73,2.1 0.12,0.33 0.23,0.66 0.34,0.99 0.1,0.3 0.2,0.59 0.3,0.89 0.04,0.12 0.08,0.24 0.11,0.36 1.59,4.89 2.32,10.01 2.28,15.14 z"
           id="path17"
           style="fill:#9b5c33;fill-rule:evenodd;stroke-width:7.46404;stroke-dasharray:none"
           inkscape:original-d="m 488.59,508.62 v 0.45 c -0.05,0.5 -0.1,1 -0.16,1.5 -2.16,5.64 -5.32,10.64 -9.5,15 -2.82,3.02 -5.68,6 -8.57,8.94 -1.04,1.06 -2.09,2.12 -3.15,3.17 -0.52,0.53 -1.04,1.05 -1.57,1.56 -0.8,0.8 -1.6,1.58 -2.4,2.35 -0.72,0.73 -1.45,1.43 -2.18,2.13 -0.83,0.8 -1.67,1.6 -2.51,2.39 -0.67,0.65 -1.34,1.29 -2.02,1.91 -1.12,1.06 -2.25,2.1 -3.38,3.14 -0.24,0.23 -0.48,0.45 -0.72,0.67 -1.19,1.09 -2.39,2.18 -3.6,3.26 -0.52,0.48 -1.05,0.95 -1.57,1.4 -0.97,0.87 -1.94,1.73 -2.92,2.58 -0.7,0.62 -1.4,1.23 -2.11,1.83 -0.56,0.5 -1.12,0.98 -1.68,1.46 -0.33,0.28 -0.66,0.56 -0.99,0.84 -0.56,0.48 -1.12,0.96 -1.68,1.42 -0.94,0.8 -1.88,1.59 -2.83,2.37 -0.57,0.48 -1.13,0.95 -1.7,1.41 -0.93,0.78 -1.87,1.54 -2.81,2.29 -0.68,0.56 -1.36,1.11 -2.04,1.65 -0.91,0.74 -1.83,1.47 -2.75,2.18 -0.55,0.44 -1.1,0.88 -1.65,1.3 -0.98,0.78 -1.98,1.55 -2.97,2.31 -0.62,0.48 -1.25,0.96 -1.88,1.44 -0.62,0.48 -1.23,0.94 -1.85,1.4 -1.09,0.83 -2.19,1.65 -3.29,2.46 -3.02,2.24 -6.08,4.45 -9.16,6.62 0.86,-0.98 33.17,-37.89 22.16,-71.94 -11.16,-34.5 -50.33,-58.18 -50.33,-58.18 0,0 13.49,27.31 -12.46,39.37 l -8.33,-0.21 c -0.74,-1.65 -1.45,-3.18 -2.17,-4.61 -0.5,-0.99 -1.01,-1.93 -1.52,-2.83 -0.03,-0.05 -0.06,-0.1 -0.09,-0.15 -0.37,-0.64 -0.75,-1.26 -1.15,-1.86 -0.6,-0.9 -1.22,-1.76 -1.89,-2.59 -0.51,-0.61 -1.04,-1.21 -1.61,-1.8 -0.18,-0.19 -0.37,-0.39 -0.57,-0.58 -0.52,-0.52 -1.07,-1.02 -1.65,-1.49 -0.14,-0.12 -0.29,-0.24 -0.44,-0.36 -0.35,-0.28 -0.72,-0.57 -1.1,-0.85 -0.38,-0.28 -0.77,-0.55 -1.18,-0.83 -1.42,-0.95 -3.01,-1.88 -4.81,-2.8 -1.04,-0.52 -2.14,-1.04 -3.31,-1.56 -0.3,-0.13 -0.6,-0.26 -0.9,-0.39 -0.26,-0.11 -0.52,-0.22 -0.78,-0.33 -0.27,-0.11 -0.53,-0.22 -0.8,-0.33 -0.54,-0.23 -1.09,-0.45 -1.67,-0.66 -0.43,-0.17 -0.86,-0.33 -1.31,-0.5 -1.33,-0.5 -2.75,-1 -4.25,-1.51 -1.33,0.7 -2.64,1.39 -3.94,2.08 -1.71,0.91 -3.4,1.8 -5.05,2.68 -0.01,0 -0.02,0.01 -0.02,0.01 -6.95,3.71 -13.29,7.14 -19.15,10.25 -0.31,0.16 -0.62,0.33 -0.92,0.49 -0.55,0.29 -1.06,0.58 -1.53,0.85 -4.59,2.69 -5.65,4.62 -9.88,6.51 -1.54,0.68 -3.49,1.36 -6.19,2.07 -3.77,1 -8.99,2.05 -16.53,3.25 l -49.65,-1.3 c -1.41,-0.03 -2.78,-0.3 -4.11,-0.74 -0.65,-0.21 -1.28,-0.46 -1.91,-0.75 -4.99,-2.26 -9.51,-6.61 -14.02,-9.6 l -0.11,-0.07 -0.51,-0.54 c -13.51,-14.25 -18.95,-22.32 -28.62,-17.4 -0.59,0.3 -1.19,0.64 -1.81,1.04 -0.28,0.2 -0.57,0.4 -0.86,0.61 -0.01,0 -0.02,0 -0.03,0.02 -8.95,6.24 -21.81,13.03 -28.6,20.8 -0.04,0.03 -0.07,0.07 -0.11,0.12 -11.97,-0.51 -18.33,-19.6 -18.07,-30.24 0,0 -41.78,49.75 -38.4,94.36 1.39,18.44 10.51,34.01 20.73,45.93 q 0,0 0.01,0.02 c -0.58,-0.36 -1.16,-0.72 -1.73,-1.09 -0.58,-0.36 -1.15,-0.74 -1.73,-1.11 -0.59,-0.38 -1.17,-0.76 -1.75,-1.15 -0.64,-0.42 -1.27,-0.85 -1.91,-1.3 -0.51,-0.35 -1.02,-0.71 -1.53,-1.07 -0.58,-0.4 -1.14,-0.81 -1.71,-1.22 -2.98,-2.15 -5.91,-4.42 -8.77,-6.8 -0.57,-0.46 -1.13,-0.93 -1.68,-1.4 -0.42,-0.36 -0.83,-0.71 -1.23,-1.06 -0.51,-0.45 -1.02,-0.9 -1.53,-1.35 -1.07,-0.95 -2.13,-1.91 -3.18,-2.89 -1.05,-0.98 -2.09,-1.97 -3.12,-2.98 -5.04,-4.93 -9.43,-10.47 -13.16,-16.45 l -0.05,-0.08 c -0.06,-1.16 -0.11,-2.31 -0.14,-3.46 -0.72,-23.13 3.79,-46.11 12.61,-67.5 0.82,-1.98 1.65,-4 2.5,-6.12 1.07,-2.71 2.26,-5.36 3.57,-7.96 l 3.92,-7.79 5.61,-11.16 c 4.34,-8.63 6.11,-12.35 12,-21.52 1.16,-1.79 2.42,-3.53 3.78,-5.17 2.29,-2.76 4.02,-5.21 5.75,-7.66 1.73,-2.44 3.46,-4.88 5.77,-7.63 3.72,-4.43 20.34,-22.38 32.07,-31.7 2.1,-1.67 4.04,-3.06 5.72,-4.05 9.08,-5.34 13.68,-7.9 22.33,-12 10.06,-4.75 20.6,-8.36 31.43,-10.79 0.4,-0.09 0.79,-0.17 1.18,-0.26 0.06,-0.01 0.13,-0.03 0.19,-0.04 1.13,-0.24 2.26,-0.47 3.39,-0.69 18.61,-3.56 23.24,-4.01 43.82,-5.5 25.19,-0.94 31.83,-0.33 48,0.5 2.52,0.26 5.05,0.52 7.57,0.79 0.28,0.03 0.55,0.06 0.83,0.1 0.2,0.01 0.4,0.03 0.59,0.06 0.48,0.05 0.96,0.11 1.44,0.16 0.48,0.06 0.95,0.13 1.43,0.19 19.56,2.44 38.65,7.41 56.81,14.71 15.64,6.3 30.59,14.34 44.56,24.01 l 16.12,11.18 c 8.27,5.73 15.79,12.45 22.31,20.04 3.87,4.5 7.39,9.31 10.51,14.39 0.97,1.58 1.97,3.13 2.99,4.6 0.11,0.15 0.21,0.29 0.31,0.44 0.24,0.34 0.48,0.68 0.73,1.01 5.11,6.94 9.75,14.22 13.45,22 2.19,4.6 4.23,9.27 6.1,14 1.11,2.78 2.16,5.58 3.15,8.4 0.25,0.7 0.49,1.4 0.73,2.1 0.12,0.33 0.23,0.66 0.34,0.99 0.1,0.3 0.2,0.59 0.3,0.89 0.04,0.12 0.08,0.24 0.11,0.36 1.59,4.89 2.32,10.01 2.28,15.14 z" />
      </g>
      <path
         class="st2"
         d="m 385.21525,259.92664 c -5.81989,8.48761 -13.2785,14.78298 -22.38586,18.86868 -6.01542,2.7084 -12.52289,4.13857 -19.0947,4.65254 -20.40696,1.59267 -38.22734,-5.071 -53.47075,-19.99947 -0.30658,-0.2972 -0.72242,-0.46152 -1.14484,-0.43602 v 0 c -1.83345,0.11068 -3.07688,1.92665 -2.49365,3.66843 0.4308,1.309 1.18817,2.49905 2.25361,3.56229 15.81646,16.95048 35.3587,24.49342 58.64413,22.61875 0.99011,17.74624 1.15846,35.47895 0.50467,53.18915 -0.1227,0.65685 -0.44446,1.15436 -0.97425,1.49303 -0.52978,0.33866 -1.22813,0.42591 -1.87382,0.33862 -18.23809,-2.52522 -36.57096,-3.78186 -54.99759,-3.75197 -15.0405,-0.21057 -30.0137,0.69325 -44.93763,2.71264 -10.15472,1.37973 -20.28334,2.89316 -30.39482,4.54086 -15.8857,3.71917 -31.72437,7.7692 -47.53289,12.16924 -2.64356,0.73689 -5.37589,-0.89324 -5.94362,-3.57407 -3.8977,-18.54492 -6.58179,-37.30744 -8.04381,-56.29704 23.11376,-1.43136 41.31399,-11.48715 54.60022,-30.17637 0.68163,-0.96121 1.08962,-2.1224 1.00956,-3.29923 -0.11038,-1.68011 -1.1076,-2.35957 -2.98251,-2.03893 -0.91077,0.15421 -1.729,0.64558 -2.33649,1.34073 -16.06432,18.24356 -34.5419,26.39476 -55.42324,24.46208 -17.76087,-1.64297 -34.13966,-10.87423 -44.27146,-25.55198 -5.525874,-8.0102 -8.921482,-17.04198 -10.19528,-27.08584 -1.648926,-12.97082 0.591033,-26.22152 6.62027,-37.81572 8.4368,-16.24064 22.52724,-26.98647 42.28035,-32.23797 14.27702,-2.87335 27.91238,-1.13469 40.905,5.19799 6.75214,-10.82599 15.54796,-19.4752 26.39649,-25.94815 2.73141,-1.3736 5.50009,-2.57806 8.3055,-3.62237 19.65474,-7.32927 41.50795,-6.03255 59.73272,4.34111 7.99604,4.55063 15.15537,10.63108 21.49536,18.23132 11.75011,-8.12397 24.77174,-11.47177 39.08396,-10.02654 25.74827,3.65943 43.46481,16.37294 53.1322,38.15064 3.68475,8.29271 5.87416,17.21689 5.86273,26.29198 -0.026,13.01783 -4.1364,25.01938 -12.33908,36.02315 z"
         id="path13"
         style="fill:#f2e0c0;fill-rule:evenodd;stroke:none;stroke-width:4.50194;stroke-dasharray:none;stroke-opacity:1" />
      <g
         id="Capa_4"
         transform="matrix(0.89061663,0,0,1,32.095674,-4.397546)">
        <path
           class="st3"
           d="m 192.79,525.33 c -1.74,2.52 -13.24,20.82 -15.32,26.11 -12.54,32.64 -4.28,59.39 25.45,78.53 -33.69,-4.46 -61.31,-19.26 -83.53,-42.7 -4.61,-4.86 -8.21,-10.62 -10.35,-16.97 -2.28,-6.76 -3.37,-13.7 -3.26,-20.84 0.11,-7.66 1.95,-15.19 4.94,-22.25 9.77,-23.09 25,-42.14 45.69,-57.14 5.03,-3.26 10.21,-5.38 15.55,-6.38 13.27,-2.48 26.76,4.29 32.69,16.42 1.31,2.68 2.26,5.5 2.83,8.45 2.07,10.55 -1.17,21.42 -8.1,29.64 -2.1,2.49 -4.3,4.87 -6.6,7.12 h 0.01 z"
           id="path18"
           style="fill:#9b5c33;fill-rule:evenodd" />
        <path
           class="st3"
           d="m 294.77,522.99 c 1.89,2.4 15,20.68 16.96,25.07 14.61,31.78 8.16,58.89 -20.28,79.9 33.33,-6.61 59.85,-23.04 80.53,-47.86 4.29,-5.15 7.52,-11.13 9.25,-17.6 1.84,-6.89 2.49,-13.89 1.92,-21.01 -0.6,-7.64 -2.92,-15.03 -6.35,-21.88 -11.23,-22.42 -27.65,-40.45 -49.26,-54.1 -5.23,-2.93 -10.54,-4.72 -15.93,-5.38 -13.4,-1.63 -26.43,5.99 -31.57,18.48 -1.14,2.76 -1.9,5.63 -2.29,8.61 -1.39,10.66 2.53,21.3 9.98,29.07 2.26,2.35 4.6,4.58 7.04,6.69 v 0 z"
           id="path19"
           style="fill:#9b5c33;fill-rule:evenodd" />
      </g>
      <g
         id="Capa_5"
         transform="matrix(0.89061663,0,0,1,32.095674,-4.397546)">
        <ellipse
           class="st4"
           cx="320.17001"
           cy="505.64001"
           rx="24.77"
           ry="31.98"
           transform="rotate(-21.47,320.16329,505.62639)"
           id="ellipse19"
           style="fill:#f2e0c0" />
        <ellipse
           class="st4"
           cx="164.71001"
           cy="505.64999"
           rx="31.98"
           ry="24.77"
           transform="rotate(-68.53,164.70522,505.64806)"
           id="ellipse20"
           style="fill:#f2e0c0" />
        <ellipse
           class="st5"
           cx="164.71001"
           cy="507.63"
           rx="21.6"
           ry="16.74"
           transform="rotate(-68.53,164.70998,507.6285)"
           id="ellipse21"
           style="fill:#362d24" />
        <ellipse
           class="st5"
           cx="320.17001"
           cy="505.64001"
           rx="16.74"
           ry="21.6"
           transform="rotate(-21.47,320.16329,505.62639)"
           id="ellipse22"
           style="fill:#362d24" />
        <path
           class="st2"
           d="m 298.62,503.86 c 0,0 11.16,-32.17 40.48,-38.92 0,0 -18.42,-16.86 -38.4,-12.45 -19.98,4.41 -2.08,51.37 -2.08,51.37 z"
           id="path22"
           style="fill:#f2e0c0;fill-rule:evenodd" />
        <path
           class="st1"
           d="m 243.43,589.57 c 0,0 -3.27,-2.11 -7.79,-3.2 -3.01,-0.72 -16.64,-5.36 -17.97,-17.04 -0.75,-6.57 3.07,-12.82 9.06,-15.61 6.61,-3.08 17.67,-6.13 29.93,-0.6 6.88,3.1 11.21,10.29 9.99,17.74 -0.85,5.17 -5.26,11.23 -14.92,14.75 0,0 -1.57,0.48 -8.3,3.96 z"
           id="path23"
           style="fill:#382e24;fill-rule:evenodd" />
        <path
           class="st2"
           d="m 186.85,502.58 c 0,0 -11.16,-32.17 -40.48,-38.92 0,0 18.42,-16.86 38.4,-12.45 19.98,4.41 2.08,51.37 2.08,51.37 z"
           id="path24"
           style="fill:#f2e0c0;fill-rule:evenodd" />
      </g>
    </g>
  </g>
</svg>
