<svg xmlns="http://www.w3.org/2000/svg" width="49" height="49" fill="none" viewBox="0 0 49 49">
  <g clip-path="url(#a)">
    <path fill="#000" d="M40.834 18.54h-.025c0 .484 0 .967-.025 1.453-.788 11.042-10.88 20.388-22.238 20.803v.03a16.333 16.333 0 0 0 14.12 8.176h10.21A6.125 6.125 0 0 0 49 42.877V32.668a16.334 16.334 0 0 0-8.166-14.128Z"/>
    <path fill="#000" d="M36.703 19.705a18.43 18.43 0 0 0 0-2.66C35.968 6.923 27.167-.687 17.046.048 7.4 1.149.089 9.268 0 18.976v10.29c0 5.17 3.077 7.485 6.125 7.485h11.637c9.712-.083 17.838-7.396 18.941-17.046Zm-6.447 5.46c0 .632-.516 1.149-1.148 1.149H7.12a1.152 1.152 0 0 1-1.148-1.149c0-.631.517-1.148 1.148-1.148h21.988c.632 0 1.148.517 1.148 1.148Zm0-5.642c0 .632-.516 1.149-1.148 1.149H7.12a1.152 1.152 0 0 1-1.148-1.149c0-.631.517-1.148 1.148-1.148h21.988c.632 0 1.148.517 1.148 1.148Zm-.974-4.493H7.294a1.152 1.152 0 0 1-1.148-1.148c0-.632.517-1.149 1.148-1.149h21.988c.632 0 1.149.517 1.149 1.149 0 .631-.517 1.148-1.149 1.148Z"/>
  </g>
  <defs>
    <clipPath id="a">
      <path fill="#fff" d="M0 0h49v49H0z"/>
    </clipPath>
  </defs>
</svg>
