<svg xmlns="http://www.w3.org/2000/svg" width="32" height="32" fill="none" viewBox="0 0 32 32">
  <g clip-path="url(#a)">
    <g clip-path="url(#b)">
      <path fill="#F0E2D5" d="M15.333 21.333a2 2 0 0 0-2 2V24.4a3.6 3.6 0 0 1-3.6 3.6H7.6A3.6 3.6 0 0 1 4 24.4V7.6A3.6 3.6 0 0 1 7.6 4h2.133a3.6 3.6 0 0 1 3.6 3.6v1.067a2 2 0 1 0 4 0V7.6a7.608 7.608 0 0 0-7.6-7.6H7.6A7.608 7.608 0 0 0 0 7.6v16.8A7.608 7.608 0 0 0 7.6 32h2.133a7.608 7.608 0 0 0 7.6-7.6v-1.067a2 2 0 0 0-2-2Z"/>
      <path fill="#F0E2D5" d="m30.081 12.7-6.114-6.115a2 2 0 1 0-2.828 2.83l4.548 4.548L9.333 14a2 2 0 0 0 0 4l16.425-.037-4.623 4.622a2 2 0 1 0 2.828 2.83l6.114-6.115a4.673 4.673 0 0 0 .004-6.6Z"/>
    </g>
  </g>
  <defs>
    <clipPath id="a">
      <path fill="#fff" d="M0 0h32v32H0z"/>
    </clipPath>
    <clipPath id="b">
      <path fill="#fff" d="M0 0h32v32H0z"/>
    </clipPath>
  </defs>
</svg>
